<svg id="visual" viewBox="0 0 900 600" width="900" height="600" xmlns="http://www.w3.org/2000/svg" xmlns:xlink="http://www.w3.org/1999/xlink" version="1.1"><rect x="0" y="0" width="900" height="600" fill="#ffffff"></rect><defs><linearGradient id="grad1_0" x1="33.3%" y1="0%" x2="100%" y2="100%"><stop offset="20%" stop-color="#ffffff" stop-opacity="1"></stop><stop offset="80%" stop-color="#ffffff" stop-opacity="1"></stop></linearGradient></defs><defs><linearGradient id="grad2_0" x1="0%" y1="0%" x2="66.7%" y2="100%"><stop offset="20%" stop-color="#ffffff" stop-opacity="1"></stop><stop offset="80%" stop-color="#ffffff" stop-opacity="1"></stop></linearGradient></defs><g transform="translate(900, 0)"><path d="M0 378.6C-40.5 347.7 -81 316.7 -123.6 298.4C-166.2 280.1 -211 274.3 -251.7 251.7C-292.5 229.1 -329.3 189.6 -349.8 144.9C-370.2 100.1 -374.4 50.1 -378.6 0L0 0Z" fill="#1C4F3A"></path></g><g transform="translate(0, 600)"><path d="M0 -378.6C35 -342.4 70.1 -306.3 122.1 -294.7C174.1 -283.2 243.1 -296.2 267.7 -267.7C292.3 -239.2 272.5 -169 283.6 -117.5C294.7 -65.9 336.6 -33 378.6 0L0 0Z" fill="#1C4F3A"></path></g></svg>